<svg viewBox="0 0 800 30" xmlns="http://www.w3.org/2000/svg">

	<path d="M-10 20 Q10 40 30 20 Q50 0 70 20 Q90 40 110 20 Q130 0 150 20 Q170 40 190 20 Q210 0 230 20 Q250 40 270 20 Q290 0 310 20 Q330 40 350 20 Q370 0 390 20 Q410 40 430 20 Q450 0 470 20 Q490 40 510 20 Q530 0 550 20 Q570 40 590 20 Q610 0 630 20 Q650 40 670 20 Q690 0 710 20 Q730 40 750 20 Q770 0 800 20 V-10 H-10 Z"
		fill="rgba(219, 228, 198,0.4)">
		
		<animate attributeName="d" keyTimes="0;0.5;1" dur="10s" repeatCount="indefinite" 
			values="	M-10 20 Q10 40 30 20 Q50 0 70 20 Q90 40 110 20 Q130 0 150 20 Q170 40 190 20 Q210 0 230 20 Q250 40 270 20 Q290 0 310 20 Q330 40 350 20 Q370 0 390 20 Q410 40 430 20 Q450 0 470 20 Q490 40 510 20 Q530 0 550 20 Q570 40 590 20 Q610 0 630 20 Q650 40 670 20 Q690 0 710 20 Q730 40 750 20 Q770 0 800 20 V50 H-10 Z;
						M-10 20 Q10 0 30 20 Q50 40 70 20 Q90 0 110 20 Q130 40 150 20 Q170 0 190 20 Q210 40 230 20 Q250 0 270 20 Q290 40 310 20 Q330 0 350 20 Q370 40 390 20 Q410 0 430 20 Q450 40 470 20 Q490 0 510 20 Q530 40 550 20 Q570 0 590 20 Q610 40 630 20 Q650 0 670 20 Q690 40 710 20 Q730 0 750 20 Q770 40 800 20 V50 H-10 Z;
						M-10 20 Q10 40 30 20 Q50 0 70 20 Q90 40 110 20 Q130 0 150 20 Q170 40 190 20 Q210 0 230 20 Q250 40 270 20 Q290 0 310 20 Q330 40 350 20 Q370 0 390 20 Q410 40 430 20 Q450 0 470 20 Q490 40 510 20 Q530 0 550 20 Q570 40 590 20 Q610 0 630 20 Q650 40 670 20 Q690 0 710 20 Q730 40 750 20 Q770 0 800 20 V50 H-10 Z">
		</animate>	
	</path>
	
	<path d="M-10 20 Q10 40 30 20 Q50 0 70 20 Q90 40 110 20 Q130 0 150 20 Q170 40 190 20 Q210 0 230 20 Q250 40 270 20 Q290 0 310 20 Q330 40 350 20 Q370 0 390 20 Q410 40 430 20 Q450 0 470 20 Q490 40 510 20 Q530 0 550 20 Q570 40 590 20 Q610 0 630 20 Q650 40 670 20 Q690 0 710 20 Q730 40 750 20 Q770 0 800 20 V50 H-10 Z"
		fill="rgba(187, 214, 184,0.4)">
		
		<animate attributeName="d" keyTimes="0;0.5;1" dur="16s" repeatCount="indefinite" 
			values="	M-10 20 Q10 40 30 20 Q50 0 70 20 Q90 40 110 20 Q130 0 150 20 Q170 40 190 20 Q210 0 230 20 Q250 40 270 20 Q290 0 310 20 Q330 40 350 20 Q370 0 390 20 Q410 40 430 20 Q450 0 470 20 Q490 40 510 20 Q530 0 550 20 Q570 40 590 20 Q610 0 630 20 Q650 40 670 20 Q690 0 710 20 Q730 40 750 20 Q770 0  800 20 V50 H-10 Z;
						M-10 20 Q10 0 30 20 Q50 40 70 20 Q90 0 110 20 Q130 40 150 20 Q170 0 190 20 Q210 40 230 20 Q250 0 270 20 Q290 40 310 20 Q330 0 350 20 Q370 40 390 20 Q410 0 430 20 Q450 40 470 20 Q490 0 510 20 Q530 40 550 20 Q570 0 590 20 Q610 40 630 20 Q650 0 670 20 Q690 40 710 20 Q730 0 750 20 Q770 40  800 20 V50 H-10 Z;
						M-10 20 Q10 40 30 20 Q50 0 70 20 Q90 40 110 20 Q130 0 150 20 Q170 40 190 20 Q210 0 230 20 Q250 40 270 20 Q290 0 310 20 Q330 40 350 20 Q370 0 390 20 Q410 40 430 20 Q450 0 470 20 Q490 40 510 20 Q530 0 550 20 Q570 40 590 20 Q610 0 630 20 Q650 40 670 20 Q690 0 710 20 Q730 40 750 20 Q770 0  800 20 V50 H-10 Z">
		</animate>	
	</path>
	
</svg>